<?xml version="1.0" encoding="utf-8"?>
<!-- Generator: Adobe Illustrator 24.3.0, SVG Export Plug-In . SVG Version: 6.00 Build 0)  -->
<svg version="1.1" id="Layer_1" xmlns="http://www.w3.org/2000/svg" xmlns:xlink="http://www.w3.org/1999/xlink" x="0px" y="0px"
	 viewBox="0 0 32 32" style="enable-background:new 0 0 32 32;" xml:space="preserve">
<style type="text/css">
	.st0{fill:url(#SVGID_1_);}
	.st1{fill:#FFFFFF;}
</style>
<g>
	<g>
		
			<linearGradient id="SVGID_1_" gradientUnits="userSpaceOnUse" x1="16" y1="34" x2="16" y2="2" gradientTransform="matrix(1 0 0 -1 0 34)">
			<stop  offset="0" style="stop-color:#FF7602"/>
			<stop  offset="1" style="stop-color:#FF3502"/>
		</linearGradient>
		<path class="st0" d="M31.8,16c0,8.9-7.1,16-15.8,16C7.4,32,0.2,24.9,0.2,16c0-8.9,7.1-16,15.8-16C24.6,0,31.8,7.1,31.8,16z"/>
		<path class="st1" d="M4.8,17.1C4.8,17,4.9,17,4.8,17.1C5,17,5,17,5,17.1l0.2,1.3L5,19.6c0,0.1,0,0.1-0.1,0.1c0,0-0.1,0-0.1-0.1
			l-0.2-1.3L4.8,17.1z"/>
		<path class="st1" d="M5.8,16.2C5.8,16.2,5.9,16.2,5.8,16.2l0.3,2.2l-0.3,2c0,0.1,0,0.1-0.1,0.1c0,0-0.1,0-0.1-0.1l-0.2-2L5.8,16.2
			C5.7,16.2,5.7,16.2,5.8,16.2z"/>
		<path class="st1" d="M9.2,14.5c0-0.1,0.1-0.2,0.2-0.2c0.1,0,0.2,0.1,0.2,0.2l0.2,3.8l-0.2,2.5v0c0,0.1-0.1,0.2-0.2,0.2
			c-0.1,0-0.2-0.1-0.2-0.2L9,18.3L9.2,14.5z"/>
		<path class="st1" d="M7.4,15.8c0-0.1,0.1-0.1,0.1-0.1c0.1,0,0.1,0.1,0.1,0.1l0.2,2.5l-0.2,2.4c0,0.1-0.1,0.1-0.1,0.1
			c-0.1,0-0.1-0.1-0.1-0.1l-0.2-2.4L7.4,15.8z"/>
		<path class="st1" d="M11.4,20.8c0,0.1-0.1,0.2-0.2,0.2c-0.1,0-0.2-0.1-0.2-0.2l-0.2-2.4l0.2-5.1c0-0.1,0.1-0.2,0.2-0.2
			c0.1,0,0.2,0.1,0.2,0.2l0.2,5.1L11.4,20.8z"/>
		<path class="st1" d="M15.3,20.7c0,0.2-0.1,0.3-0.3,0.3c-0.2,0-0.3-0.1-0.3-0.3c0,0-0.1-2.3-0.1-2.3l0.1-5.8c0-0.2,0.1-0.3,0.3-0.3
			c0.2,0,0.3,0.1,0.3,0.3l0.1,5.8L15.3,20.7z"/>
		<path class="st1" d="M13.3,20.7c0,0.1-0.1,0.3-0.2,0.3c-0.1,0-0.2-0.1-0.2-0.2l-0.1-2.4l0.1-5.1c0-0.1,0.1-0.3,0.2-0.3
			c0.1,0,0.2,0.1,0.2,0.3l0.1,5.1L13.3,20.7L13.3,20.7z"/>
		<path class="st1" d="M8.6,20.8c0,0.1-0.1,0.2-0.2,0.2c-0.1,0-0.1-0.1-0.2-0.2l-0.2-2.5L8.3,16c0-0.1,0.1-0.2,0.2-0.2
			c0.1,0,0.1,0.1,0.2,0.2l0.2,2.3L8.6,20.8z"/>
		<path class="st1" d="M6.8,20.7c0,0.1-0.1,0.1-0.1,0.1c-0.1,0-0.1,0-0.1-0.1l-0.2-2.4l0.2-2.4c0-0.1,0.1-0.1,0.1-0.1
			c0.1,0,0.1,0,0.1,0.1L7,18.3L6.8,20.7z"/>
		<path class="st1" d="M13.8,13.4c0-0.2,0.1-0.3,0.3-0.3c0.1,0,0.3,0.1,0.3,0.3l0.1,4.9l-0.1,2.4v0c0,0.2-0.1,0.3-0.3,0.3
			c-0.1,0-0.3-0.1-0.3-0.3l-0.1-2.4L13.8,13.4z"/>
		<path class="st1" d="M10.5,20.8c0,0.1-0.1,0.2-0.2,0.2c-0.1,0-0.2-0.1-0.2-0.2l-0.2-2.4l0.2-4.7c0-0.1,0.1-0.2,0.2-0.2
			c0.1,0,0.2,0.1,0.2,0.2l0.2,4.7L10.5,20.8z"/>
		<path class="st1" d="M12.4,20.7L12.4,20.7c0,0.1-0.1,0.2-0.2,0.2c-0.1,0-0.2-0.1-0.2-0.2l-0.1-2.4l0.1-5.2c0-0.1,0.1-0.2,0.2-0.2
			c0.1,0,0.2,0.1,0.2,0.2l0.2,5.2L12.4,20.7L12.4,20.7C12.4,20.7,12.4,20.7,12.4,20.7L12.4,20.7z"/>
		<path class="st1" d="M23.5,15.6c0.3-0.1,0.7-0.2,1.1-0.2c1.5,0,2.8,1.3,2.8,2.8c0,1.6-1.2,2.8-2.8,2.8c0,0-7.7,0-7.7,0
			c-0.2,0-0.3-0.2-0.3-0.3v-9c0-0.2,0.1-0.2,0.3-0.3c0.5-0.2,1.2-0.3,1.8-0.3C21.1,11,23.2,13,23.5,15.6z"/>
		<path class="st1" d="M15.6,12c0-0.2,0.1-0.3,0.3-0.3c0.2,0,0.3,0.1,0.3,0.3l0.1,6.4l-0.1,2.3v0c0,0.2-0.1,0.3-0.3,0.3
			c-0.2,0-0.3-0.1-0.3-0.3l-0.1-2.3L15.6,12z"/>
	</g>
</g>
</svg>
