<svg xmlns="http://www.w3.org/2000/svg" aria-hidden="true" style="position:absolute;width:0;height:0;overflow:hidden">
  <defs>
    <symbol id="logo" viewBox="0 0 155 32">
      <path fill="#fff" d="M12.097 24.65c-2.398 0-4.457-.509-6.177-1.527-1.72-1.041-3.043-2.478-3.971-4.31-.928-1.855-1.391-3.994-1.391-6.415s.464-4.559 1.391-6.415C2.877 4.128 4.2 2.68 5.92 1.639S9.699.078 12.097.078c2.851 0 5.181.713 6.992 2.138 1.833 1.403 2.975 3.383 3.428 5.939h-4.785c-.294-1.29-.928-2.297-1.901-3.021-.95-.747-2.217-1.12-3.801-1.12-2.195 0-3.914.747-5.159 2.24s-1.867 3.541-1.867 6.143.622 4.65 1.867 6.143c1.244 1.471 2.964 2.206 5.159 2.206 1.584 0 2.851-.339 3.801-1.018.973-.701 1.606-1.663 1.901-2.885h4.785c-.453 2.444-1.595 4.356-3.428 5.736-1.81 1.38-4.141 2.07-6.992 2.07zm19.288 0c-1.448 0-2.636-.226-3.564-.679-.928-.475-1.618-1.097-2.07-1.867s-.679-1.618-.679-2.545c0-1.561.611-2.828 1.833-3.801s3.055-1.459 5.498-1.459h4.276v-.407c0-1.154-.328-2.002-.984-2.545s-1.471-.815-2.444-.815c-.882 0-1.652.215-2.308.645-.656.407-1.063 1.018-1.222 1.833h-4.242c.113-1.222.52-2.285 1.222-3.19.724-.905 1.652-1.595 2.783-2.07 1.131-.498 2.398-.747 3.801-.747 2.398 0 4.288.6 5.668 1.799s2.07 2.896 2.07 5.091v10.351h-3.699l-.407-2.715a6.224 6.224 0 0 1-2.104 2.24c-.882.588-2.025.882-3.428.882zm.984-3.394c1.244 0 2.206-.407 2.885-1.222.701-.815 1.143-1.821 1.324-3.021h-3.699c-1.154 0-1.98.215-2.478.645-.498.407-.747.916-.747 1.527 0 .656.249 1.165.747 1.527s1.154.543 1.969.543zm19.079 3.394c-1.493 0-2.806-.238-3.937-.713-1.131-.498-2.036-1.177-2.715-2.036s-1.086-1.855-1.222-2.987h4.378c.136.656.498 1.222 1.086 1.697.611.453 1.392.679 2.342.679s1.64-.192 2.07-.577c.452-.385.679-.826.679-1.324 0-.724-.317-1.21-.95-1.459-.634-.271-1.516-.532-2.647-.781-.724-.158-1.459-.351-2.206-.577s-1.437-.509-2.07-.848a4.79 4.79 0 0 1-1.493-1.358c-.385-.566-.577-1.256-.577-2.07 0-1.493.588-2.749 1.765-3.767 1.199-1.018 2.873-1.527 5.023-1.527 1.991 0 3.575.464 4.752 1.392 1.199.928 1.912 2.206 2.138 3.835h-4.107c-.249-1.244-1.188-1.867-2.817-1.867-.815 0-1.448.158-1.901.475-.43.317-.645.713-.645 1.188 0 .498.328.894.984 1.188s1.527.566 2.613.815c1.177.271 2.251.577 3.224.916.995.317 1.787.803 2.376 1.459.588.634.882 1.55.882 2.749.023 1.041-.249 1.98-.815 2.817s-1.38 1.493-2.444 1.968c-1.063.475-2.319.713-3.767.713zm17.166-.408c-1.765 0-3.179-.43-4.242-1.29s-1.595-2.387-1.595-4.582v-7.331h-2.885V7.408h2.885l.509-4.514h3.835v4.514h4.548v3.631h-4.548v7.365c0 .815.17 1.38.509 1.697.362.294.973.441 1.833.441h2.104v3.699h-2.953zm11.909.408c-1.448 0-2.636-.226-3.564-.679-.928-.475-1.618-1.097-2.07-1.867s-.679-1.618-.679-2.545c0-1.561.611-2.828 1.833-3.801s3.055-1.459 5.498-1.459h4.276v-.407c0-1.154-.328-2.002-.984-2.545s-1.471-.815-2.444-.815c-.882 0-1.652.215-2.308.645-.656.407-1.063 1.018-1.222 1.833h-4.242c.113-1.222.52-2.285 1.222-3.19.724-.905 1.652-1.595 2.783-2.07 1.131-.498 2.398-.747 3.801-.747 2.398 0 4.288.6 5.668 1.799s2.07 2.896 2.07 5.091v10.351h-3.699l-.407-2.715a6.224 6.224 0 0 1-2.104 2.24c-.882.588-2.025.882-3.428.882zm.984-3.394c1.244 0 2.206-.407 2.885-1.222.701-.815 1.143-1.821 1.324-3.021h-3.699c-1.154 0-1.98.215-2.478.645-.498.407-.747.916-.747 1.527 0 .656.249 1.165.747 1.527s1.154.543 1.969.543zm15.248 2.986L91.834 7.408h4.31l2.918 12.116 3.394-12.116h4.819l3.394 12.116 2.953-12.116h4.31l-4.955 16.834h-4.514l-3.598-12.591-3.598 12.591h-4.514zm28.182.408c-1.448 0-2.636-.226-3.564-.679-.927-.475-1.617-1.097-2.07-1.867s-.679-1.618-.679-2.545c0-1.561.611-2.828 1.833-3.801s3.055-1.459 5.498-1.459h4.276v-.407c0-1.154-.328-2.002-.984-2.545-.655-.543-1.47-.815-2.444-.815-.882 0-1.651.215-2.308.645-.656.407-1.063 1.018-1.222 1.833h-4.242c.113-1.222.521-2.285 1.222-3.19.724-.905 1.652-1.595 2.783-2.07 1.132-.498 2.399-.747 3.801-.747 2.399 0 4.288.6 5.668 1.799s2.07 2.896 2.07 5.091v10.351h-3.699l-.407-2.715a6.215 6.215 0 0 1-2.104 2.24c-.882.588-2.025.882-3.428.882zm.984-3.394c1.245 0 2.206-.407 2.885-1.222.702-.815 1.143-1.821 1.324-3.021h-3.699c-1.154 0-1.979.215-2.478.645-.497.407-.747.916-.747 1.527 0 .656.249 1.165.747 1.527s1.154.543 1.969.543zm13.662 10.453 3.903-8.587h-1.018l-6.55-15.714h4.718l4.718 11.845 4.921-11.845h4.616L144.2 31.709h-4.616z" style="fill:var(--color1, #fff)"/>
    </symbol>
    <symbol id="cloud" viewBox="0 0 32 32">
      <linearGradient id="a" x1="16" x2="16" y1="34" y2="2" gradientTransform="matrix(1 0 0 -1 0 34)" gradientUnits="userSpaceOnUse">
        <stop offset="0" style="stop-color:#ff7602"/>
        <stop offset="1" style="stop-color:#ff3502"/>
      </linearGradient>
      <path d="M31.8 16c0 8.9-7.1 16-15.8 16C7.4 32 .2 24.9.2 16S7.3 0 16 0c8.6 0 15.8 7.1 15.8 16z" style="fill:url(#a)"/>
      <path d="M4.8 17.1c0-.1.1-.1 0 0 .2-.1.2-.1.2 0l.2 1.3-.2 1.2c0 .1 0 .1-.1.1 0 0-.1 0-.1-.1l-.2-1.3.2-1.2zm1-.9s.1 0 0 0l.3 2.2-.3 2c0 .1 0 .1-.1.1 0 0-.1 0-.1-.1l-.2-2 .4-2.2c-.1 0-.1 0 0 0zm3.4-1.7c0-.1.1-.2.2-.2s.2.1.2.2l.2 3.8-.2 2.5c0 .1-.1.2-.2.2s-.2-.1-.2-.2L9 18.3l.2-3.8zm-1.8 1.3c0-.1.1-.1.1-.1.1 0 .1.1.1.1l.2 2.5-.2 2.4c0 .1-.1.1-.1.1-.1 0-.1-.1-.1-.1l-.2-2.4.2-2.5zm4 5c0 .1-.1.2-.2.2s-.2-.1-.2-.2l-.2-2.4.2-5.1c0-.1.1-.2.2-.2s.2.1.2.2l.2 5.1-.2 2.4zm3.9-.1c0 .2-.1.3-.3.3-.2 0-.3-.1-.3-.3l-.1-2.3.1-5.8c0-.2.1-.3.3-.3.2 0 .3.1.3.3l.1 5.8-.1 2.3zm-2 0c0 .1-.1.3-.2.3s-.2-.1-.2-.2l-.1-2.4.1-5.1c0-.1.1-.3.2-.3s.2.1.2.3l.1 5.1-.1 2.3zm-4.7.1c0 .1-.1.2-.2.2s-.1-.1-.2-.2L8 18.3l.3-2.3c0-.1.1-.2.2-.2s.1.1.2.2l.2 2.3-.3 2.5zm-1.8-.1c0 .1-.1.1-.1.1-.1 0-.1 0-.1-.1l-.2-2.4.2-2.4c0-.1.1-.1.1-.1.1 0 .1 0 .1.1l.2 2.4-.2 2.4zm7-7.3c0-.2.1-.3.3-.3.1 0 .3.1.3.3l.1 4.9-.1 2.4c0 .2-.1.3-.3.3-.1 0-.3-.1-.3-.3l-.1-2.4.1-4.9zm-3.3 7.4c0 .1-.1.2-.2.2s-.2-.1-.2-.2l-.2-2.4.2-4.7c0-.1.1-.2.2-.2s.2.1.2.2l.2 4.7-.2 2.4zm1.9-.1c0 .1-.1.2-.2.2s-.2-.1-.2-.2l-.1-2.4.1-5.2c0-.1.1-.2.2-.2s.2.1.2.2l.2 5.2-.2 2.4zm11.1-5.1c.3-.1.7-.2 1.1-.2 1.5 0 2.8 1.3 2.8 2.8 0 1.6-1.2 2.8-2.8 2.8h-7.7c-.2 0-.3-.2-.3-.3v-9c0-.2.1-.2.3-.3.5-.2 1.2-.3 1.8-.3 2.4-.1 4.5 1.9 4.8 4.5zM15.6 12c0-.2.1-.3.3-.3.2 0 .3.1.3.3l.1 6.4-.1 2.3c0 .2-.1.3-.3.3-.2 0-.3-.1-.3-.3l-.1-2.3.1-6.4z" style="fill:#fff"/>
    </symbol>
    <symbol id="wifi" viewBox="0 0 32 32">
      <path fill="#1ed760" d="M15.999.053C7.19.053.048 7.195.048 16.004S7.19 31.955 15.999 31.955c8.81 0 15.951-7.141 15.951-15.951S24.809.054 15.999.054V.053zm7.315 23.005a.994.994 0 0 1-1.368.33c-3.745-2.288-8.46-2.806-14.012-1.537a.994.994 0 0 1-.442-1.939c6.076-1.389 11.288-.791 15.493 1.779a.994.994 0 0 1 .329 1.368zm1.953-4.343c-.36.586-1.126.77-1.71.41-4.288-2.636-10.823-3.399-15.895-1.86a1.245 1.245 0 0 1-1.552-.829 1.246 1.246 0 0 1 .829-1.551c5.793-1.758 12.995-.906 17.918 2.119.585.36.77 1.126.41 1.71zm.167-4.523c-5.141-3.054-13.623-3.334-18.531-1.845a1.492 1.492 0 0 1-.867-2.855c5.635-1.71 15.001-1.38 20.92 2.134a1.49 1.49 0 1 1-1.522 2.566h-.001z" style="fill:var(--color2, #1ed760)"/>
    </symbol>
    <symbol id="copy" viewBox="0 0 32 32">
      <path fill="#fff" d="M15.659 30c7.732 0 14-6.268 14-14s-6.268-14-14-14-14 6.268-14 14 6.268 14 14 14z" style="fill:var(--color1, #fff)"/>
      <path fill="#f43e37" d="M16.186 0C7.61 0 .659 7.163.659 16S7.61 32 16.186 32s15.527-7.163 15.527-16S24.762 0 16.186 0zm4.81 16.148c0-2.655-2.089-4.808-4.666-4.808s-4.666 2.153-4.666 4.808 2.089 4.808 4.666 4.808v2.748c-4.049 0-7.332-3.383-7.332-7.556s3.283-7.556 7.332-7.556c4.05 0 7.333 3.383 7.333 7.556h-2.666zm4.499 0c0-5.216-4.103-9.444-9.166-9.444s-9.165 4.229-9.165 9.444c0 5.216 4.103 9.444 9.165 9.444v3.148c-6.749 0-12.22-5.638-12.22-12.592S9.581 3.556 16.329 3.556c6.749 0 12.221 5.638 12.221 12.592h-3.055z" style="fill:var(--color3, #f43e37)"/>
    </symbol>
    <symbol id="radio" viewBox="0 0 32 32">
      <path fill="#fff" stroke="#363f46" stroke-linecap="round" stroke-width="2.426" d="M15.938 30c7.767 0 14.063-6.296 14.063-14.063S23.705 1.874 15.938 1.874 1.875 8.17 1.875 15.937 8.171 30 15.938 30z" style="fill:var(--color1, #fff);stroke:var(--color5, #363f46)"/>
      <path fill="#fff" d="M8.303 9.999s-1.945 2.194-1.945 6.027 1.945 5.938 1.945 5.938z" style="fill:var(--color1, #fff)"/>
      <path fill="none" stroke="#fc7e0f" stroke-linecap="round" stroke-width="2.426" d="M8.303 9.999s-1.945 2.194-1.945 6.027 1.945 5.938 1.945 5.938" style="stroke:var(--color6, #fc7e0f)"/>
      <path fill="#fff" d="M23.796 9.999s1.945 2.194 1.945 6.027-1.945 5.938-1.945 5.938z" style="fill:var(--color1, #fff)"/>
      <path fill="none" stroke="#fc7e0f" stroke-linecap="round" stroke-width="2.426" d="M23.796 9.999s1.945 2.194 1.945 6.027-1.945 5.938-1.945 5.938" style="stroke:var(--color6, #fc7e0f)"/>
      <path fill="#fff" d="M20.694 12.563s1.31 1.631 1.278 3.455c-.04 2.194-1.262 3.399-1.262 3.399z" style="fill:var(--color1, #fff)"/>
      <path fill="none" stroke="#fc7e0f" stroke-linecap="round" stroke-width="2.426" d="M20.694 12.563s1.31 1.631 1.278 3.455c-.04 2.194-1.262 3.399-1.262 3.399" style="stroke:var(--color6, #fc7e0f)"/>
      <path fill="#fff" d="M11.341 12.563s-1.31 1.631-1.278 3.455c.04 2.194 1.262 3.399 1.262 3.399z" style="fill:var(--color1, #fff)"/>
      <path fill="none" stroke="#fc7e0f" stroke-linecap="round" stroke-width="2.426" d="M11.341 12.563s-1.31 1.631-1.278 3.455c.04 2.194 1.262 3.399 1.262 3.399" style="stroke:var(--color6, #fc7e0f)"/>
      <path fill="#363f46" d="M15.936 18.121a2.183 2.183 0 1 0 0-4.365 2.183 2.183 0 0 0 0 4.365z" style="fill:var(--color5, #363f46)"/>
      <path fill="#363f46" d="m16.305 17.977-1.549-.416-2.579 9.632 1.549.416 2.579-9.632z" style="fill:var(--color5, #363f46)"/>
      <path fill="#363f46" d="m15.705 17.964 1.542-.409 2.565 9.639-1.542.409-2.565-9.639z" style="fill:var(--color5, #363f46)"/>
      <path fill="#363f46" d="m14.273 23.162.573-.587 3.97 3.868-.573.587-3.97-3.868z" style="fill:var(--color5, #363f46)"/>
      <path fill="#363f46" d="m17.635 23.183-.518-.525-3.936 3.909.518.525 3.936-3.909z" style="fill:var(--color5, #363f46)"/>
    </symbol>
    <symbol id="stars" viewBox="0 0 34 32">
      <path fill="#fcff51" d="m16.965 25.784 7.812 4.725c1.431.866 3.181-.414 2.805-2.033l-2.071-8.885 6.908-5.986c1.261-1.092.584-3.162-1.073-3.294l-9.092-.772-3.558-8.395c-.64-1.525-2.824-1.525-3.464 0L11.674 9.52l-9.092.772c-1.656.132-2.334 2.202-1.073 3.294l6.908 5.986-2.071 8.885c-.376 1.619 1.374 2.899 2.805 2.033l7.812-4.706z" style="fill:var(--color7, #fcff51)"/>
    </symbol>
    <symbol id="insta" viewBox="0 0 32 32">
      <path fill="none" stroke="#fff" stroke-linecap="round" stroke-linejoin="round" stroke-width="2.667" d="M22.667 2.667H9.334a6.667 6.667 0 0 0-6.667 6.667v13.333a6.667 6.667 0 0 0 6.667 6.667h13.333a6.667 6.667 0 0 0 6.667-6.667V9.334a6.667 6.667 0 0 0-6.667-6.667z" style="stroke:var(--color1, #fff)"/>
      <path fill="none" stroke="#fff" stroke-linecap="round" stroke-linejoin="round" stroke-width="2.667" d="M21.333 15.16a5.338 5.338 0 0 1-6.123 6.049 5.334 5.334 0 1 1 6.124-6.048zM23.333 8.667h.013" style="stroke:var(--color1, #fff)"/>
    </symbol>
    <symbol id="twit" viewBox="0 0 32 32">
      <path fill="none" stroke="#fff" stroke-linecap="round" stroke-linejoin="round" stroke-width="2.667" d="M30.667 4a14.542 14.542 0 0 1-4.187 2.04 5.975 5.975 0 0 0-6.637-1.661A5.979 5.979 0 0 0 16 10.04v1.333a14.211 14.211 0 0 1-12-6.04s-5.333 12 6.667 17.333a15.519 15.519 0 0 1-9.333 2.667c12 6.667 26.667 0 26.667-15.333 0-.373-.04-.747-.107-1.107A10.288 10.288 0 0 0 30.667 4z" style="stroke:var(--color1, #fff)"/>
    </symbol>
    <symbol id="fb" viewBox="0 0 32 32">
      <path fill="none" stroke="#fff" stroke-linecap="round" stroke-linejoin="round" stroke-width="2.667" d="M24 2.667h-4a6.67 6.67 0 0 0-6.667 6.667v4h-4v5.333h4v10.667h5.333V18.667h4l1.333-5.333h-5.333v-4A1.334 1.334 0 0 1 20 8h4V2.667z" style="stroke:var(--color1, #fff)"/>
    </symbol>
  </defs>
</svg>
