<svg xmlns="http://www.w3.org/2000/svg" aria-hidden="true" style="position:absolute;width:0;height:0;overflow:hidden">
  <defs>
    <symbol id="logo" viewBox="0 0 155 32">
      <path fill="#fff" d="M12.097 24.65c-2.398 0-4.457-.509-6.177-1.527-1.72-1.041-3.043-2.478-3.971-4.31-.928-1.855-1.391-3.994-1.391-6.415s.464-4.559 1.391-6.415C2.877 4.128 4.2 2.68 5.92 1.639S9.699.078 12.097.078c2.851 0 5.181.713 6.992 2.138 1.833 1.403 2.975 3.383 3.428 5.939h-4.785c-.294-1.29-.928-2.297-1.901-3.021-.95-.747-2.217-1.12-3.801-1.12-2.195 0-3.914.747-5.159 2.24s-1.867 3.541-1.867 6.143.622 4.65 1.867 6.143c1.244 1.471 2.964 2.206 5.159 2.206 1.584 0 2.851-.339 3.801-1.018.973-.701 1.606-1.663 1.901-2.885h4.785c-.453 2.444-1.595 4.356-3.428 5.736-1.81 1.38-4.141 2.07-6.992 2.07zm19.288 0c-1.448 0-2.636-.226-3.564-.679-.928-.475-1.618-1.097-2.07-1.867s-.679-1.618-.679-2.545c0-1.561.611-2.828 1.833-3.801s3.055-1.459 5.498-1.459h4.276v-.407c0-1.154-.328-2.002-.984-2.545s-1.471-.815-2.444-.815c-.882 0-1.652.215-2.308.645-.656.407-1.063 1.018-1.222 1.833h-4.242c.113-1.222.52-2.285 1.222-3.19.724-.905 1.652-1.595 2.783-2.07 1.131-.498 2.398-.747 3.801-.747 2.398 0 4.288.6 5.668 1.799s2.07 2.896 2.07 5.091v10.351h-3.699l-.407-2.715a6.224 6.224 0 0 1-2.104 2.24c-.882.588-2.025.882-3.428.882zm.984-3.394c1.244 0 2.206-.407 2.885-1.222.701-.815 1.143-1.821 1.324-3.021h-3.699c-1.154 0-1.98.215-2.478.645-.498.407-.747.916-.747 1.527 0 .656.249 1.165.747 1.527s1.154.543 1.969.543zm19.079 3.394c-1.493 0-2.806-.238-3.937-.713-1.131-.498-2.036-1.177-2.715-2.036s-1.086-1.855-1.222-2.987h4.378c.136.656.498 1.222 1.086 1.697.611.453 1.392.679 2.342.679s1.64-.192 2.07-.577c.452-.385.679-.826.679-1.324 0-.724-.317-1.21-.95-1.459-.634-.271-1.516-.532-2.647-.781-.724-.158-1.459-.351-2.206-.577s-1.437-.509-2.07-.848a4.79 4.79 0 0 1-1.493-1.358c-.385-.566-.577-1.256-.577-2.07 0-1.493.588-2.749 1.765-3.767 1.199-1.018 2.873-1.527 5.023-1.527 1.991 0 3.575.464 4.752 1.392 1.199.928 1.912 2.206 2.138 3.835h-4.107c-.249-1.244-1.188-1.867-2.817-1.867-.815 0-1.448.158-1.901.475-.43.317-.645.713-.645 1.188 0 .498.328.894.984 1.188s1.527.566 2.613.815c1.177.271 2.251.577 3.224.916.995.317 1.787.803 2.376 1.459.588.634.882 1.55.882 2.749.023 1.041-.249 1.98-.815 2.817s-1.38 1.493-2.444 1.968c-1.063.475-2.319.713-3.767.713zm17.166-.408c-1.765 0-3.179-.43-4.242-1.29s-1.595-2.387-1.595-4.582v-7.331h-2.885V7.408h2.885l.509-4.514h3.835v4.514h4.548v3.631h-4.548v7.365c0 .815.17 1.38.509 1.697.362.294.973.441 1.833.441h2.104v3.699h-2.953zm11.909.408c-1.448 0-2.636-.226-3.564-.679-.928-.475-1.618-1.097-2.07-1.867s-.679-1.618-.679-2.545c0-1.561.611-2.828 1.833-3.801s3.055-1.459 5.498-1.459h4.276v-.407c0-1.154-.328-2.002-.984-2.545s-1.471-.815-2.444-.815c-.882 0-1.652.215-2.308.645-.656.407-1.063 1.018-1.222 1.833h-4.242c.113-1.222.52-2.285 1.222-3.19.724-.905 1.652-1.595 2.783-2.07 1.131-.498 2.398-.747 3.801-.747 2.398 0 4.288.6 5.668 1.799s2.07 2.896 2.07 5.091v10.351h-3.699l-.407-2.715a6.224 6.224 0 0 1-2.104 2.24c-.882.588-2.025.882-3.428.882zm.984-3.394c1.244 0 2.206-.407 2.885-1.222.701-.815 1.143-1.821 1.324-3.021h-3.699c-1.154 0-1.98.215-2.478.645-.498.407-.747.916-.747 1.527 0 .656.249 1.165.747 1.527s1.154.543 1.969.543zm15.248 2.986L91.834 7.408h4.31l2.918 12.116 3.394-12.116h4.819l3.394 12.116 2.953-12.116h4.31l-4.955 16.834h-4.514l-3.598-12.591-3.598 12.591h-4.514zm28.182.408c-1.448 0-2.636-.226-3.564-.679-.927-.475-1.617-1.097-2.07-1.867s-.679-1.618-.679-2.545c0-1.561.611-2.828 1.833-3.801s3.055-1.459 5.498-1.459h4.276v-.407c0-1.154-.328-2.002-.984-2.545-.655-.543-1.47-.815-2.444-.815-.882 0-1.651.215-2.308.645-.656.407-1.063 1.018-1.222 1.833h-4.242c.113-1.222.521-2.285 1.222-3.19.724-.905 1.652-1.595 2.783-2.07 1.132-.498 2.399-.747 3.801-.747 2.399 0 4.288.6 5.668 1.799s2.07 2.896 2.07 5.091v10.351h-3.699l-.407-2.715a6.215 6.215 0 0 1-2.104 2.24c-.882.588-2.025.882-3.428.882zm.984-3.394c1.245 0 2.206-.407 2.885-1.222.702-.815 1.143-1.821 1.324-3.021h-3.699c-1.154 0-1.979.215-2.478.645-.497.407-.747.916-.747 1.527 0 .656.249 1.165.747 1.527s1.154.543 1.969.543zm13.662 10.453 3.903-8.587h-1.018l-6.55-15.714h4.718l4.718 11.845 4.921-11.845h4.616L144.2 31.709h-4.616z" style="fill:var(--color1, #fff)"/>
    </symbol>
    <symbol id="wifi" viewBox="0 0 32 32">
      <path fill="#1ed760" d="M15.999.053C7.19.053.048 7.195.048 16.004S7.19 31.955 15.999 31.955c8.81 0 15.951-7.141 15.951-15.951S24.809.054 15.999.054V.053zm7.315 23.005a.994.994 0 0 1-1.368.33c-3.745-2.288-8.46-2.806-14.012-1.537a.994.994 0 0 1-.442-1.939c6.076-1.389 11.288-.791 15.493 1.779a.994.994 0 0 1 .329 1.368zm1.953-4.343c-.36.586-1.126.77-1.71.41-4.288-2.636-10.823-3.399-15.895-1.86a1.245 1.245 0 0 1-1.552-.829 1.246 1.246 0 0 1 .829-1.551c5.793-1.758 12.995-.906 17.918 2.119.585.36.77 1.126.41 1.71zm.167-4.523c-5.141-3.054-13.623-3.334-18.531-1.845a1.492 1.492 0 0 1-.867-2.855c5.635-1.71 15.001-1.38 20.92 2.134a1.49 1.49 0 1 1-1.522 2.566h-.001z" style="fill:var(--color2, #1ed760)"/>
    </symbol>
    <symbol id="copy" viewBox="0 0 32 32">
      <path fill="#fff" d="M15.659 30c7.732 0 14-6.268 14-14s-6.268-14-14-14-14 6.268-14 14 6.268 14 14 14z" style="fill:var(--color1, #fff)"/>
      <path fill="#f43e37" d="M16.186 0C7.61 0 .659 7.163.659 16S7.61 32 16.186 32s15.527-7.163 15.527-16S24.762 0 16.186 0zm4.81 16.148c0-2.655-2.089-4.808-4.666-4.808s-4.666 2.153-4.666 4.808 2.089 4.808 4.666 4.808v2.748c-4.049 0-7.332-3.383-7.332-7.556s3.283-7.556 7.332-7.556c4.05 0 7.333 3.383 7.333 7.556h-2.666zm4.499 0c0-5.216-4.103-9.444-9.166-9.444s-9.165 4.229-9.165 9.444c0 5.216 4.103 9.444 9.165 9.444v3.148c-6.749 0-12.22-5.638-12.22-12.592S9.581 3.556 16.329 3.556c6.749 0 12.221 5.638 12.221 12.592h-3.055z" style="fill:var(--color3, #f43e37)"/>
    </symbol>
    <symbol id="cloud" viewBox="0 0 32 32">
      <path d="M31.659 16c0 8.889-7.133 16-15.767 16S0 24.889 0 16 7.133 0 15.767 0s15.892 7.111 15.892 16z" style="fill:var(--color4, #000)"/>
      <path fill="#fff" d="M4.67 17.069c.006-.053.044-.09.091-.09.046 0 .083.037.09.09l.196 1.277-.196 1.255c-.007.053-.045.089-.09.089-.047 0-.085-.037-.091-.09l-.166-1.255.166-1.277zM5.598 16.189c.048 0 .086.038.094.093l.253 2.064-.253 2.019c-.008.055-.047.093-.094.093s-.088-.039-.094-.093l-.223-2.019.223-2.064c.007-.054.046-.093.094-.093zM9.03 14.55c.004-.096.08-.172.171-.172s.166.076.171.172l.2 3.798-.2 2.455v-.001c-.005.096-.081.172-.171.172s-.167-.076-.171-.172l-.177-2.454.177-3.798zM7.252 15.83c.006-.076.063-.133.133-.133s.127.057.133.132l.227 2.517-.227 2.435c-.006.075-.063.132-.133.132s-.128-.057-.133-.132l-.2-2.435.2-2.516zM11.257 20.762c-.005.119-.097.211-.21.211s-.206-.093-.21-.211l-.154-2.414.154-5.056c.004-.119.096-.212.21-.212s.205.093.21.211l.174 5.056-.174 2.413zM15.112 20.694c-.003.16-.132.29-.287.29s-.285-.13-.287-.289l-.108-2.347.108-5.838c.002-.16.131-.291.287-.291s.285.131.287.29l.121 5.84-.121 2.344zM13.17 20.724c-.004.141-.113.251-.249.251s-.246-.11-.249-.25l-.132-2.376.131-5.093a.25.25 0 0 1 .249-.251c.136 0 .245.11.249.251l.148 5.093-.148 2.377v-.002zM8.442 20.801c-.006.086-.071.152-.152.152-.082 0-.147-.066-.152-.152l-.188-2.455.188-2.334c.005-.087.07-.152.152-.152s.146.065.152.151l.214 2.335-.214 2.455zM6.602 20.706c-.007.065-.055.113-.114.113-.06 0-.108-.047-.114-.113l-.211-2.36.211-2.449c.006-.065.054-.113.114-.113s.107.047.114.113l.24 2.449-.24 2.36zM13.601 13.443c.003-.152.121-.271.268-.271s.264.119.268.271l.134 4.908-.134 2.361v-.002c-.003.152-.121.271-.268.271s-.265-.119-.268-.269l-.12-2.361.12-4.907zM10.312 20.786a.196.196 0 0 1-.191.192.194.194 0 0 1-.191-.191l-.166-2.439.166-4.667a.195.195 0 0 1 .191-.192c.102 0 .186.084.191.192l.187 4.667-.187 2.438zM12.21 20.748c-.004.129-.105.23-.229.23s-.226-.102-.229-.23l-.143-2.399.143-5.226c.003-.13.104-.232.229-.232s.225.102.229.232l.161 5.227-.161 2.398v.001-.001.001zM23.291 15.556a2.75 2.75 0 0 1 1.078-.219c1.538 0 2.786 1.266 2.786 2.828s-1.247 2.827-2.786 2.827l-7.723-.005a.34.34 0 0 1-.301-.334V11.68c.002-.165.058-.25.268-.332a4.925 4.925 0 0 1 1.782-.338c2.569 0 4.674 1.999 4.896 4.547zM15.469 11.982c.002-.171.14-.311.307-.311s.304.139.307.31l.137 6.369-.137 2.312v-.003c-.003.171-.14.311-.307.311s-.305-.139-.307-.308l-.126-2.311.126-6.369z" style="fill:var(--color1, #fff)"/>
    </symbol>
    <symbol id="info" viewBox="0 0 32 32">
      <path d="M31.367 27.736c-.311.79-1.029 1.903-2.047 2.686a6.705 6.705 0 0 1-2.253 1.171c-1.027.304-2.293.407-3.868.407h-14.4c-1.575 0-2.84-.103-3.868-.407a6.687 6.687 0 0 1-2.253-1.171C1.66 29.638.942 28.526.631 27.736c-.627-1.592-.633-3.398-.633-4.536V8.8c0-1.138.006-2.944.633-4.536.311-.79 1.029-1.903 2.047-2.686A6.705 6.705 0 0 1 4.931.407C5.958.103 7.224 0 8.799 0h14.4c1.575 0 2.84.103 3.867.407a6.687 6.687 0 0 1 2.253 1.171c1.018.784 1.736 1.896 2.047 2.686.627 1.592.633 3.398.633 4.536v14.4c0 1.137-.006 2.944-.633 4.536z" style="fill:var(--color4, #000)"/>
      <path fill="#fff" d="M18.321 18.393c-.48-.507-1.324-.831-2.319-.831s-1.839.325-2.319.831a1.469 1.469 0 0 0-.425.922c-.081.748-.035 1.391.052 2.421.083.981.242 2.289.449 3.621.147.948.267 1.459.376 1.826.177.594.836 1.113 1.868 1.113s1.691-.519 1.868-1.113c.109-.366.228-.878.375-1.826.207-1.332.365-2.64.449-3.621.088-1.029.133-1.673.052-2.421a1.474 1.474 0 0 0-.425-.922zm-4.936-4.511a2.619 2.619 0 1 0 5.238 0 2.619 2.619 0 0 0-5.238 0zm2.587-10.335c-6.125.017-11.144 4.986-11.22 11.111-.062 4.961 3.106 9.205 7.528 10.761a.15.15 0 0 0 .199-.164 61.402 61.402 0 0 1-.163-1.153.39.39 0 0 0-.228-.305c-3.495-1.527-5.936-5.033-5.897-9.093.051-5.329 4.403-9.673 9.732-9.716 5.448-.044 9.894 4.375 9.894 9.813 0 4.02-2.43 7.483-5.898 8.998a.388.388 0 0 0-.227.305c-.05.38-.105.767-.163 1.152a.15.15 0 0 0 .199.164c4.38-1.541 7.529-5.719 7.529-10.619 0-6.216-5.066-11.271-11.286-11.253zm-.204 5.163a6.106 6.106 0 0 1 6.34 6.094 6.084 6.084 0 0 1-1.927 4.445.463.463 0 0 0-.147.366c.024.419.015.826-.013 1.285a.149.149 0 0 0 .231.132 7.537 7.537 0 0 0 3.296-6.228c0-4.256-3.545-7.699-7.837-7.533-3.989.155-7.189 3.443-7.24 7.435a7.532 7.532 0 0 0 3.296 6.326.148.148 0 0 0 .23-.132c-.028-.46-.037-.867-.013-1.286a.466.466 0 0 0-.146-.366 6.085 6.085 0 0 1-1.926-4.609c.084-3.196 2.661-5.807 5.855-5.93z" style="fill:var(--color1, #fff)"/>
    </symbol>
    <symbol id="radio" viewBox="0 0 32 32">
      <path fill="#fff" stroke="#363f46" stroke-linecap="round" stroke-width="2.426" d="M15.938 30c7.767 0 14.063-6.296 14.063-14.063S23.705 1.874 15.938 1.874 1.875 8.17 1.875 15.937 8.171 30 15.938 30z" style="fill:var(--color1, #fff);stroke:var(--color5, #363f46)"/>
      <path fill="#fff" d="M8.303 9.999s-1.945 2.194-1.945 6.027 1.945 5.938 1.945 5.938z" style="fill:var(--color1, #fff)"/>
      <path fill="none" stroke="#fc7e0f" stroke-linecap="round" stroke-width="2.426" d="M8.303 9.999s-1.945 2.194-1.945 6.027 1.945 5.938 1.945 5.938" style="stroke:var(--color6, #fc7e0f)"/>
      <path fill="#fff" d="M23.796 9.999s1.945 2.194 1.945 6.027-1.945 5.938-1.945 5.938z" style="fill:var(--color1, #fff)"/>
      <path fill="none" stroke="#fc7e0f" stroke-linecap="round" stroke-width="2.426" d="M23.796 9.999s1.945 2.194 1.945 6.027-1.945 5.938-1.945 5.938" style="stroke:var(--color6, #fc7e0f)"/>
      <path fill="#fff" d="M20.694 12.563s1.31 1.631 1.278 3.455c-.04 2.194-1.262 3.399-1.262 3.399z" style="fill:var(--color1, #fff)"/>
      <path fill="none" stroke="#fc7e0f" stroke-linecap="round" stroke-width="2.426" d="M20.694 12.563s1.31 1.631 1.278 3.455c-.04 2.194-1.262 3.399-1.262 3.399" style="stroke:var(--color6, #fc7e0f)"/>
      <path fill="#fff" d="M11.341 12.563s-1.31 1.631-1.278 3.455c.04 2.194 1.262 3.399 1.262 3.399z" style="fill:var(--color1, #fff)"/>
      <path fill="none" stroke="#fc7e0f" stroke-linecap="round" stroke-width="2.426" d="M11.341 12.563s-1.31 1.631-1.278 3.455c.04 2.194 1.262 3.399 1.262 3.399" style="stroke:var(--color6, #fc7e0f)"/>
      <path fill="#363f46" d="M15.936 18.121a2.183 2.183 0 1 0 0-4.365 2.183 2.183 0 0 0 0 4.365z" style="fill:var(--color5, #363f46)"/>
      <path fill="#363f46" d="m16.305 17.977-1.549-.416-2.579 9.632 1.549.416 2.579-9.632z" style="fill:var(--color5, #363f46)"/>
      <path fill="#363f46" d="m15.705 17.964 1.542-.409 2.565 9.639-1.542.409-2.565-9.639z" style="fill:var(--color5, #363f46)"/>
      <path fill="#363f46" d="m14.273 23.162.573-.587 3.97 3.868-.573.587-3.97-3.868z" style="fill:var(--color5, #363f46)"/>
      <path fill="#363f46" d="m17.635 23.183-.518-.525-3.936 3.909.518.525 3.936-3.909z" style="fill:var(--color5, #363f46)"/>
    </symbol>
    <symbol id="stars" viewBox="0 0 34 32">
      <path fill="#fcff51" d="m16.965 25.784 7.812 4.725c1.431.866 3.181-.414 2.805-2.033l-2.071-8.885 6.908-5.986c1.261-1.092.584-3.162-1.073-3.294l-9.092-.772-3.558-8.395c-.64-1.525-2.824-1.525-3.464 0L11.674 9.52l-9.092.772c-1.656.132-2.334 2.202-1.073 3.294l6.908 5.986-2.071 8.885c-.376 1.619 1.374 2.899 2.805 2.033l7.812-4.706z" style="fill:var(--color7, #fcff51)"/>
    </symbol>
    <symbol id="insta" viewBox="0 0 32 32">
      <path fill="none" stroke="#fff" stroke-linecap="round" stroke-linejoin="round" stroke-width="2.667" d="M22.667 2.667H9.334a6.667 6.667 0 0 0-6.667 6.667v13.333a6.667 6.667 0 0 0 6.667 6.667h13.333a6.667 6.667 0 0 0 6.667-6.667V9.334a6.667 6.667 0 0 0-6.667-6.667z" style="stroke:var(--color1, #fff)"/>
      <path fill="none" stroke="#fff" stroke-linecap="round" stroke-linejoin="round" stroke-width="2.667" d="M21.333 15.16a5.338 5.338 0 0 1-6.123 6.049 5.334 5.334 0 1 1 6.124-6.048zM23.333 8.667h.013" style="stroke:var(--color1, #fff)"/>
    </symbol>
    <symbol id="twit" viewBox="0 0 32 32">
      <path fill="none" stroke="#fff" stroke-linecap="round" stroke-linejoin="round" stroke-width="2.667" d="M30.667 4a14.542 14.542 0 0 1-4.187 2.04 5.975 5.975 0 0 0-6.637-1.661A5.979 5.979 0 0 0 16 10.04v1.333a14.211 14.211 0 0 1-12-6.04s-5.333 12 6.667 17.333a15.519 15.519 0 0 1-9.333 2.667c12 6.667 26.667 0 26.667-15.333 0-.373-.04-.747-.107-1.107A10.288 10.288 0 0 0 30.667 4z" style="stroke:var(--color1, #fff)"/>
    </symbol>
    <symbol id="fb" viewBox="0 0 32 32">
      <path fill="none" stroke="#fff" stroke-linecap="round" stroke-linejoin="round" stroke-width="2.667" d="M24 2.667h-4a6.67 6.67 0 0 0-6.667 6.667v4h-4v5.333h4v10.667h5.333V18.667h4l1.333-5.333h-5.333v-4A1.334 1.334 0 0 1 20 8h4V2.667z" style="stroke:var(--color1, #fff)"/>
    </symbol>
  </defs>
</svg>
